<svg width="64" height="39" viewBox="0 0 64 39" fill="none" xmlns="http://www.w3.org/2000/svg">
    <path d="M31.1112 38.7176C30.9044 38.7176 30.6975 38.6625 30.5154 38.5582L28.6196 37.4367C28.3369 37.2792 28.4754 37.2222 28.5684 37.19C28.946 37.059 29.0219 37.0287 29.4261 36.801C29.4679 36.7763 29.5229 36.7858 29.5665 36.8123L31.022 37.6758C31.0752 37.7042 31.1492 37.7042 31.1985 37.6758L36.8744 34.4004C36.9275 34.3701 36.9617 34.3093 36.9617 34.2467V27.696C36.9617 27.6315 36.9275 27.5727 36.8725 27.5404L31.1985 24.267C31.1454 24.2366 31.0771 24.2366 31.0239 24.267L25.3519 27.5404C25.2968 27.5727 25.2627 27.6334 25.2627 27.696V34.2467C25.2627 34.3093 25.2968 34.3682 25.3519 34.3985L26.906 35.2961C27.7505 35.7174 28.2667 35.2202 28.2667 34.7211V28.254C28.2667 28.1629 28.3407 28.0908 28.4318 28.0908H29.151C29.2402 28.0908 29.3161 28.1629 29.3161 28.254V34.7211C29.3161 35.8464 28.7031 36.4935 27.6347 36.4935C27.3065 36.4935 27.0484 36.4935 26.3273 36.1387L24.8395 35.2809C24.4714 35.0684 24.2437 34.6718 24.2437 34.2448V27.6941C24.2437 27.2691 24.4714 26.8706 24.8395 26.6599L30.5154 23.3808C30.874 23.1778 31.3522 23.1778 31.709 23.3808L37.3848 26.6599C37.753 26.8725 37.9807 27.2691 37.9807 27.6941V34.2448C37.9807 34.6699 37.7511 35.0665 37.3848 35.2809L31.709 38.5582C31.5268 38.6625 31.3219 38.7176 31.1112 38.7176" fill="#679E63"/>
    <path d="M46.1413 2.20619L42.5357 0.132068C42.2928 -0.00835729 42.0955 0.107404 42.0955 0.386358V10.2408L40.2415 9.17055C39.9986 9.03013 39.6001 9.03013 39.3572 9.17055L33.4612 12.5749C33.2183 12.7154 33.019 13.0607 33.019 13.3416V20.1503C33.019 20.4312 33.2183 20.7765 33.4612 20.9151L39.3572 24.3195C39.6001 24.4599 39.9986 24.4599 40.2415 24.3195L46.1375 20.9151C46.3804 20.7747 46.5796 20.4293 46.5796 20.1503V2.96715C46.5796 2.6882 46.3823 2.34472 46.1394 2.20619H46.1413ZM42.067 17.8826C42.067 17.9756 42.0006 18.0914 41.919 18.1388L39.9473 19.2774C39.8657 19.3248 39.7329 19.3248 39.6513 19.2774L37.6797 18.1388C37.5981 18.0914 37.5316 17.9775 37.5316 17.8826V15.6074C37.5316 15.5125 37.5981 15.3986 37.6797 15.3512L39.6513 14.2126C39.7329 14.1652 39.8657 14.1652 39.9473 14.2126L41.919 15.3512C42.0006 15.3986 42.067 15.5125 42.067 15.6074V17.8826Z" fill="white"/>
    <path d="M13.1184 12.5282L7.22244 9.12387C6.97954 8.98345 6.58103 8.98345 6.33813 9.12387L0.442151 12.5282C0.199252 12.6687 0 13.014 0 13.2949V22.5364C0 22.8154 0.197354 22.9292 0.440253 22.7907L4.07424 20.6957C4.31524 20.5553 4.5145 20.2137 4.5145 19.9348V15.5607C4.5145 15.4677 4.58091 15.3519 4.66251 15.3045L6.63417 14.1659C6.71576 14.1185 6.8486 14.1185 6.9302 14.1659L8.90185 15.3045C8.98345 15.3519 9.04987 15.4658 9.04987 15.5607V19.9348C9.04987 20.2137 9.24722 20.5572 9.49012 20.6957L13.1241 22.7907C13.367 22.9292 13.5644 22.8154 13.5644 22.5364V13.2949C13.5644 13.014 13.3651 12.6687 13.1222 12.5282H13.1184Z" fill="white"/>
    <path d="M63.0837 13.2451C63.0818 13.228 63.0761 13.2109 63.0723 13.1938C63.0723 13.1938 63.0723 13.1862 63.0704 13.1824C63.0609 13.1445 63.0495 13.1065 63.0362 13.0686C63.0362 13.0648 63.0343 13.0629 63.0324 13.0591C63.0211 13.0306 63.0097 13.004 62.9964 12.9775C62.9774 12.9395 62.9565 12.9016 62.9338 12.8674C62.9281 12.8598 62.9243 12.8522 62.9186 12.8446C62.9034 12.8238 62.8901 12.8029 62.873 12.782C62.8598 12.7649 62.8465 12.7498 62.8332 12.7346C62.8256 12.7251 62.8161 12.7156 62.8085 12.7061C62.7876 12.6833 62.7668 12.6644 62.744 12.6454C62.7383 12.6416 62.7326 12.6359 62.7288 12.6321C62.7042 12.6112 62.6776 12.5923 62.6491 12.5771L61.298 11.7971L56.7512 9.1727C56.5083 9.03228 56.1098 9.03228 55.8669 9.1727L49.971 12.5771C49.7281 12.7175 49.5288 13.0629 49.5288 13.3437V20.1525C49.5288 20.4333 49.7281 20.7787 49.971 20.9172L51.7775 21.9609L55.8631 24.3235C56.1041 24.4639 56.5008 24.462 56.7418 24.3235L60.3738 22.2228C60.6148 22.0824 60.6148 21.8547 60.3738 21.7142L54.1913 18.141C54.1097 18.0935 54.0433 17.9797 54.0433 17.8848V15.6095C54.0433 15.5146 54.1097 15.4008 54.1913 15.3533L56.163 14.2147C56.2446 14.1673 56.3774 14.1673 56.459 14.2147L58.4307 15.3533C58.5123 15.4008 58.5787 15.5146 58.5787 15.6095V17.3629C58.5787 17.6419 58.776 17.7576 59.0189 17.6172L60.9109 16.528L62.6548 15.5222C62.8958 15.3818 63.0951 15.0402 63.0951 14.7613V13.3437C63.0951 13.3115 63.0913 13.2792 63.0875 13.2469L63.0837 13.2451Z" fill="white"/>
    <path d="M56.3941 15.1576C56.3486 15.1311 56.2727 15.1311 56.2271 15.1576L55.1113 15.8028C55.0658 15.8294 55.0278 15.8939 55.0278 15.947V17.2355C55.0278 17.2887 55.0658 17.3532 55.1113 17.3798L56.2271 18.0231C56.2727 18.0496 56.3486 18.0496 56.3941 18.0231L57.51 17.3798C57.5555 17.3532 57.5935 17.2887 57.5935 17.2355V15.947C57.5935 15.8939 57.5555 15.8294 57.51 15.8028L56.3941 15.1576Z" fill="#679E63"/>
    <path d="M22.8474 9.18198L16.9514 12.5864C16.7085 12.7268 16.5093 13.0722 16.5093 13.3511V20.1599C16.5093 20.4407 16.7085 20.7861 16.9514 20.9265L22.8474 24.3309C23.0903 24.4713 23.4888 24.4713 23.7317 24.3309L29.6277 20.9265C29.8706 20.7861 30.0698 20.4407 30.0698 20.1599V13.3511C30.0698 13.0703 29.8706 12.7249 29.6277 12.5864L23.7317 9.18198C23.4888 9.04155 23.0903 9.04155 22.8474 9.18198Z" fill="url(#paint0_linear_757_451)"/>
    <path d="M16.598 20.1376C16.4576 20.3805 16.543 20.6918 16.784 20.8322L23.0159 24.4301C23.2569 24.5706 23.57 24.487 23.7104 24.2441L29.984 13.3782C30.1245 13.1372 30.0391 12.8241 29.7981 12.6837L23.5681 9.08576C23.3271 8.94534 23.014 9.02884 22.8736 9.27174L16.5999 20.1376H16.598Z" fill="url(#paint1_linear_757_451)"/>
    <path d="M29.9802 20.1376C30.1206 20.3805 30.0352 20.6918 29.7942 20.8322L23.5642 24.4301C23.3232 24.5706 23.0101 24.487 22.8697 24.2441L16.5961 13.3782C16.4557 13.1372 16.5411 12.8241 16.7821 12.6837L23.012 9.08576C23.253 8.94534 23.5661 9.02884 23.7066 9.27174L29.9802 20.1376V20.1376Z" fill="url(#paint2_linear_757_451)"/>
    <defs>
    <linearGradient id="paint0_linear_757_451" x1="28.2785" y1="7.73218" x2="15.8508" y2="30.2174" gradientUnits="userSpaceOnUse">
    <stop stop-color="#3F873F"/>
    <stop offset="0.33" stop-color="#3E8A3D"/>
    <stop offset="0.64" stop-color="#3E9537"/>
    <stop offset="0.93" stop-color="#3DA82D"/>
    <stop offset="1" stop-color="#3DAE2B"/>
    </linearGradient>
    <linearGradient id="paint1_linear_757_451" x1="12.0399" y1="17.1982" x2="36.5575" y2="16.238" gradientUnits="userSpaceOnUse">
    <stop stop-color="#3F873F"/>
    <stop offset="0.33" stop-color="#3E8A3D"/>
    <stop offset="0.64" stop-color="#3E9537"/>
    <stop offset="0.93" stop-color="#3DA82D"/>
    <stop offset="1" stop-color="#3DAE2B"/>
    </linearGradient>
    <linearGradient id="paint2_linear_757_451" x1="16.8637" y1="16.2399" x2="29.8132" y2="17.2836" gradientUnits="userSpaceOnUse">
    <stop stop-color="#6ABF4B"/>
    <stop offset="0.09" stop-color="#6ABF4B"/>
    <stop offset="0.29" stop-color="#63B649"/>
    <stop offset="0.6" stop-color="#519F44"/>
    <stop offset="0.86" stop-color="#3F873F"/>
    <stop offset="1" stop-color="#3F873F"/>
    </linearGradient>
    </defs>
    </svg>
    