<svg width="60" height="53" viewBox="0 0 60 53" fill="none" xmlns="http://www.w3.org/2000/svg">
    <path d="M24.6843 52.9141C25.2 53.0173 25.6126 52.8109 25.7157 52.3983L32.9878 27.3846L40.2599 2.3709C40.363 1.95825 40.1567 1.44251 39.7441 1.33943L35.7212 0.204771C35.3087 0.101583 34.793 0.307858 34.6898 0.720506L20.1457 50.748C20.0425 51.1605 20.2488 51.6762 20.7645 51.7794L24.6843 52.9141ZM16.1228 40.433L18.9079 37.4416C19.2173 37.1322 19.2173 36.6164 18.9079 36.307L7.97407 26.5078L18.9079 16.8118C19.2173 16.5023 19.2173 15.9866 18.9079 15.6771L16.1228 12.6858C15.8134 12.3763 15.2976 12.2732 14.9883 12.5827L0.75358 25.9921C0.444119 26.3016 0.444119 26.8173 0.75358 27.1268L14.9883 40.433C15.2976 40.7424 15.8134 40.7424 16.1228 40.433ZM45.4173 40.433L59.6519 27.1268C59.9614 26.8173 59.9614 26.3016 59.6519 25.9921L45.4173 12.5827C45.1079 12.2732 44.5921 12.3763 44.2827 12.6858L41.4976 15.6771C41.1882 15.9866 41.1882 16.5023 41.4976 16.8118L52.4314 26.5078L41.4976 36.307C41.1882 36.6164 41.1882 37.1322 41.4976 37.4416L44.2827 40.433C44.5921 40.7424 45.1079 40.7424 45.4173 40.433Z" fill="#A3FA8D"/>
</svg>
