<svg width="33" height="47" viewBox="0 0 33 47" fill="none" xmlns="http://www.w3.org/2000/svg">
<path d="M7.55647 18.2965C0.489639 30.5382 -1.19357 42.7989 3.79723 45.6795C8.78804 48.5621 18.5647 40.9734 25.6334 28.7317C32.7003 16.49 34.3835 4.22928 29.3927 1.34865C24.4019 -1.53387 14.6252 6.05292 7.55647 18.2946V18.2965ZM29.924 11.2411C29.2503 16.1465 27.0718 21.9798 23.7889 27.6671C20.5041 33.3543 16.5418 38.1592 12.6308 41.1954C9.33456 43.7534 6.42926 44.7402 4.86181 43.835C3.29246 42.9298 2.6966 39.9221 3.264 35.7871C3.93766 30.8817 6.11806 25.0483 9.40098 19.3611C12.6858 13.6739 16.6481 8.86902 20.5591 5.83469C23.8553 3.27666 26.7606 2.28799 28.3281 3.19507C29.8955 4.10024 30.4933 7.10801 29.9259 11.243L29.924 11.2411Z" fill="#00D8FF"/>
</svg>
